Coordinates
version=1
nRows=5
nColumns=40
inDegrees=yes

Units are S.I. units (second, meters, Newtons, ...)
Angles are in degrees.

endheader
time	pelvis_tilt	pelvis_list	pelvis_rotation	pelvis_tx	pelvis_ty	pelvis_tz	hip_flexion_r	hip_adduction_r	hip_rotation_r	knee_angle_r	knee_angle_r_beta	ankle_angle_r	subtalar_angle_r	mtp_angle_r	hip_flexion_l	hip_adduction_l	hip_rotation_l	knee_angle_l	knee_angle_l_beta	ankle_angle_l	subtalar_angle_l	mtp_angle_l	lumbar_extension	lumbar_bending	lumbar_rotation	arm_flex_r	arm_add_r	arm_rot_r	elbow_flex_r	pro_sup_r	wrist_flex_r	wrist_dev_r	arm_flex_l	arm_add_l	arm_rot_l	elbow_flex_l	pro_sup_l	wrist_flex_l	wrist_dev_l
      1.29250000	     -2.82727365	     -5.27834866	      4.02411946	      1.02769259	      0.92580254	      0.45054537	      3.62688235	     -1.06538898	    -13.59986350	     25.12069092	     25.12069092	     16.52284389	     -0.35436273	     -4.61077162	     23.42085794	     -7.43481351	     -1.37531793	     27.79448307	     27.79448307	     10.79737466	    -11.43447535	      2.96247335	     -7.72269044	      4.91562614	      4.15719168	     25.56139043	    -15.90804431	     -0.41331022	     86.69015677	     44.96597553	      0.00000000	      0.00000000	     -4.86786355	     -9.15419116	      0.61297246	     29.44830401	     45.02658809	      0.00000000	      0.00000000
      1.30571429	     -2.93109308	     -5.36917222	      3.70021590	      1.02650183	      0.92628663	      0.44811875	      5.18871817	     -1.44181867	    -12.64965933	     28.11811104	     28.11811104	     15.28460700	     -2.22691806	     -6.46834914	     23.09481672	     -7.50684261	     -1.78006740	     27.68583838	     27.68583838	     11.04224855	    -11.28820419	      2.55386780	     -7.64008838	      4.93509655	      4.09484971	     24.64841086	    -15.76630137	      0.02042241	     84.45531310	     45.02755639	      0.00000000	      0.00000000	     -3.84810601	     -9.51390641	      0.92930077	     29.85074543	     45.01702981	      0.00000000	      0.00000000
      1.31892857	     -2.96103714	     -5.36771040	      3.32430344	      1.02515965	      0.92688582	      0.44586360	      6.83945602	     -1.93354202	    -11.74569649	     31.32677131	     31.32677131	     13.51157175	     -4.12956302	     -9.35376327	     22.56269869	     -7.50585825	     -2.29918287	     27.35960945	     27.35960945	     11.11998635	    -11.11847699	      2.00054906	     -7.73840546	      4.84678029	      3.77339234	     23.95027417	    -15.51376744	      0.78433734	     82.15539800	     45.08548595	      0.00000000	      0.00000000	     -3.06549633	    -10.03972244	      1.44506589	     30.78092965	     44.99464808	      0.00000000	      0.00000000
      1.33214286	     -2.96825444	     -5.29535306	      2.93737448	      1.02369898	      0.92739479	      0.44367692	      8.72746348	     -2.60041617	    -11.01583530	     35.04641537	     35.04641537	     12.41227077	     -5.12514565	    -10.04575365	     22.03610176	     -7.42399398	     -2.80918799	     27.10869086	     27.10869086	     11.35778679	    -10.94614149	      1.82599956	     -7.92010091	      4.69450541	      3.76572047	     22.67473329	    -15.47059710	      1.17292754	     81.06266448	     45.10442235	      0.00000000	      0.00000000	     -1.92395020	    -10.47858115	      1.42754728	     31.41613807	     45.02207398	      0.00000000	      0.00000000
      1.34535714	     -3.01821042	     -5.27747304	      2.55388313	      1.02208266	      0.92776333	      0.44169610	     10.76569586	     -3.09751091	    -10.10251984	     38.78176117	     38.78176117	     11.03818044	     -6.43573064	    -10.59928526	     21.60339395	     -7.40292120	     -3.27922336	     26.90000138	     26.90000138	     11.54081503	    -10.80151202	      1.58624607	     -8.02283711	      4.60138807	      3.80400001	     21.38264825	    -15.45437383	      1.58893140	     79.50470889	     45.13751231	      0.00000000	      0.00000000	     -0.72084970	    -10.93738441	      1.45416206	     32.19490459	     45.04501465	      0.00000000	      0.00000000
